<svg id="visual" viewBox="0 0 900 600" width="900" height="600" xmlns="http://www.w3.org/2000/svg" xmlns:xlink="http://www.w3.org/1999/xlink" version="1.1"><rect x="0" y="0" width="900" height="600" fill="#001220"></rect><g fill="none" stroke="#A7233A" stroke-width="1"><circle r="12" cx="101" cy="179"></circle><circle r="6" cx="781" cy="296"></circle><circle r="7" cx="527" cy="563"></circle><circle r="10" cx="772" cy="530"></circle><circle r="6" cx="372" cy="461"></circle><circle r="5" cx="575" cy="253"></circle><circle r="7" cx="738" cy="67"></circle><circle r="9" cx="541" cy="462"></circle><circle r="6" cx="202" cy="560"></circle><circle r="9" cx="184" cy="449"></circle><circle r="8" cx="860" cy="496"></circle><circle r="5" cx="297" cy="78"></circle><circle r="8" cx="492" cy="2"></circle><circle r="6" cx="793" cy="165"></circle><circle r="7" cx="258" cy="251"></circle><circle r="9" cx="884" cy="204"></circle><circle r="6" cx="303" cy="513"></circle><circle r="5" cx="148" cy="252"></circle><circle r="9" cx="712" cy="306"></circle><circle r="10" cx="810" cy="393"></circle><circle r="6" cx="106" cy="277"></circle><circle r="7" cx="571" cy="410"></circle><circle r="6" cx="166" cy="31"></circle><circle r="10" cx="408" cy="421"></circle><circle r="7" cx="456" cy="529"></circle><circle r="10" cx="213" cy="28"></circle><circle r="10" cx="717" cy="595"></circle><circle r="6" cx="881" cy="147"></circle><circle r="8" cx="78" cy="306"></circle><circle r="7" cx="131" cy="188"></circle><circle r="6" cx="29" cy="592"></circle><circle r="7" cx="370" cy="415"></circle><circle r="7" cx="720" cy="275"></circle><circle r="9" cx="877" cy="544"></circle><circle r="8" cx="462" cy="218"></circle><circle r="9" cx="498" cy="505"></circle><circle r="10" cx="651" cy="74"></circle><circle r="8" cx="631" cy="557"></circle><circle r="5" cx="671" cy="440"></circle><circle r="8" cx="405" cy="449"></circle><circle r="6" cx="860" cy="89"></circle><circle r="5" cx="16" cy="181"></circle><circle r="10" cx="374" cy="324"></circle><circle r="7" cx="740" cy="528"></circle><circle r="8" cx="138" cy="308"></circle><circle r="9" cx="223" cy="474"></circle><circle r="5" cx="251" cy="582"></circle><circle r="9" cx="12" cy="355"></circle><circle r="6" cx="139" cy="153"></circle><circle r="8" cx="308" cy="270"></circle><circle r="6" cx="534" cy="309"></circle><circle r="9" cx="79" cy="401"></circle><circle r="6" cx="243" cy="210"></circle><circle r="10" cx="206" cy="122"></circle><circle r="8" cx="448" cy="322"></circle><circle r="10" cx="493" cy="74"></circle><circle r="9" cx="134" cy="362"></circle><circle r="7" cx="243" cy="434"></circle><circle r="7" cx="333" cy="113"></circle><circle r="10" cx="688" cy="556"></circle><circle r="10" cx="811" cy="494"></circle><circle r="6" cx="70" cy="429"></circle><circle r="10" cx="203" cy="152"></circle><circle r="9" cx="182" cy="187"></circle><circle r="7" cx="482" cy="459"></circle><circle r="9" cx="280" cy="121"></circle><circle r="7" cx="465" cy="19"></circle><circle r="9" cx="130" cy="523"></circle><circle r="8" cx="841" cy="593"></circle><circle r="7" cx="737" cy="123"></circle><circle r="9" cx="409" cy="327"></circle><circle r="7" cx="524" cy="182"></circle><circle r="9" cx="788" cy="595"></circle><circle r="5" cx="76" cy="541"></circle><circle r="10" cx="36" cy="135"></circle><circle r="8" cx="72" cy="72"></circle><circle r="5" cx="106" cy="117"></circle><circle r="10" cx="502" cy="149"></circle><circle r="10" cx="281" cy="528"></circle><circle r="6" cx="366" cy="258"></circle><circle r="8" cx="468" cy="395"></circle><circle r="9" cx="895" cy="570"></circle><circle r="9" cx="869" cy="122"></circle><circle r="9" cx="402" cy="541"></circle><circle r="9" cx="361" cy="486"></circle><circle r="10" cx="820" cy="203"></circle><circle r="7" cx="28" cy="454"></circle><circle r="8" cx="694" cy="360"></circle><circle r="8" cx="686" cy="34"></circle><circle r="9" cx="879" cy="285"></circle><circle r="6" cx="867" cy="367"></circle><circle r="9" cx="137" cy="456"></circle><circle r="5" cx="103" cy="511"></circle><circle r="10" cx="492" cy="225"></circle><circle r="7" cx="578" cy="147"></circle><circle r="10" cx="481" cy="120"></circle><circle r="5" cx="585" cy="446"></circle><circle r="10" cx="488" cy="328"></circle><circle r="5" cx="57" cy="495"></circle><circle r="8" cx="798" cy="50"></circle><circle r="7" cx="878" cy="8"></circle></g></svg>