<svg id="visual" viewBox="0 0 960 540" width="960" height="540" xmlns="http://www.w3.org/2000/svg" xmlns:xlink="http://www.w3.org/1999/xlink" version="1.1"><rect x="0" y="0" width="960" height="540" fill="#19191C"></rect><g transform="translate(468.2611589719471 282.640906068999)"><path d="M111.8 -202.8C138.9 -178 150.9 -136 172 -99.3C193.2 -62.7 223.6 -31.3 230.4 3.9C237.2 39.2 220.3 78.3 194.3 106.5C168.2 134.6 132.8 151.7 98.9 170C65 188.2 32.5 207.6 -2.5 212C-37.5 216.3 -75 205.6 -106 185.7C-137.1 165.7 -161.6 136.6 -180.7 104.1C-199.8 71.7 -213.4 35.8 -206.7 3.9C-200.1 -28.1 -173.1 -56.3 -157.8 -95.2C-142.4 -134.2 -138.7 -184 -114.4 -210.4C-90 -236.9 -45 -239.9 -1.3 -237.6C42.3 -235.3 84.7 -227.6 111.8 -202.8" fill="#C2831D"></path></g></svg>